# xmcd
#
# Track frame offsets: 
#        150
#        20222
#        42447
#        64617
#        86212
#        102882
#        122087
#        144642
#        162387
#        180145
#        198960
#        220487
#        243872
#        262370
#        283720
#
# Disc length: 4056 seconds
#
# Revision: 8
# Processed by: cddbd v1.5.2PL0 Copyright (c) Steve Scherf et al.
# Submitted via: ExactAudioCopy v1.2
#
DISCID=e30fd60f
DTITLE=森口博子 - BEST OF MY LIFE
DYEAR=1995
DGENRE=JPop
TTITLE0=もっとうまく好きと言えたなら
TTITLE1=Let's Go (森口博子&DualDream)
TTITLE2=Lucky Girl～信じる者は救われる～
TTITLE3=愛は夢のとなりに～DearFormula1Pilot～
TTITLE4=水の星へ愛を込めて
TTITLE5=Still Love You
TTITLE6=夢の合鍵
TTITLE7=やさしい星で
TTITLE8=スピード
TTITLE9=夢がMORI MORI
TTITLE10=誘惑してよね夏だから
TTITLE11=あなたのそばにいるだけで
TTITLE12=ホイッスル
TTITLE13=ETERNAL WIND～ほほえみは光る風の中～
TTITLE14=あなたといた時間
EXTD=YEAR: 1995
EXTT0=
EXTT1=
EXTT2=
EXTT3=
EXTT4=
EXTT5=
EXTT6=
EXTT7=
EXTT8=
EXTT9=
EXTT10=
EXTT11=
EXTT12=
EXTT13=
EXTT14=
PLAYORDER=
